<?xml version="1.0" encoding="utf-8"?>
<!-- Generator: Adobe Illustrator 26.0.1, SVG Export Plug-In . SVG Version: 6.00 Build 0)  -->
<svg version="1.1" id="Ebene_1" xmlns="http://www.w3.org/2000/svg" xmlns:xlink="http://www.w3.org/1999/xlink" x="0px" y="0px"
	 viewBox="0 0 47 47" style="enable-background:new 0 0 47 47;" xml:space="preserve">
<style type="text/css">
	.st0{fill:#4E4D4D;}
	.st1{fill:#202121;}
</style>
<g id="Thin-S" transform="matrix(1 0 0 1 811.863 696)">
	<path class="st0" d="M-788.4-649c3.2,0,6.3-0.6,9.1-1.8c2.8-1.2,5.4-2.9,7.5-5.1c2.2-2.2,3.9-4.7,5.1-7.5c1.2-2.8,1.8-5.9,1.8-9.1
		s-0.6-6.2-1.8-9.1c-1.2-2.9-2.9-5.4-5.1-7.5c-2.2-2.2-4.7-3.9-7.5-5.1c-2.8-1.2-5.9-1.8-9.1-1.8c-3.2,0-6.2,0.6-9.1,1.8
		c-2.9,1.2-5.4,2.9-7.5,5.1c-2.2,2.2-3.9,4.7-5,7.5c-1.2,2.8-1.9,5.9-1.9,9.1s0.6,6.2,1.9,9.1c1.2,2.8,2.9,5.4,5,7.5
		c2.2,2.2,4.7,3.9,7.5,5.1C-794.6-649.6-791.5-649-788.4-649z M-788.4-651.1c-2.9,0-5.7-0.6-8.3-1.7c-2.6-1.1-4.9-2.6-6.8-4.6
		c-1.9-1.9-3.5-4.2-4.6-6.9c-1.1-2.6-1.7-5.4-1.7-8.3c0-2.9,0.6-5.7,1.7-8.3c1.1-2.6,2.6-4.9,4.6-6.9c1.9-1.9,4.2-3.5,6.8-4.6
		c2.6-1.1,5.4-1.7,8.3-1.7c3,0,5.7,0.6,8.4,1.7s4.9,2.6,6.8,4.6c1.9,1.9,3.5,4.2,4.6,6.9c1.1,2.6,1.7,5.4,1.7,8.3
		c0,2.9-0.6,5.7-1.7,8.3c-1.1,2.6-2.6,4.9-4.6,6.9c-1.9,1.9-4.2,3.5-6.8,4.6C-782.6-651.7-785.4-651.1-788.4-651.1z"/>
	<path class="st1" d="M-787.3-661.8c0.3,0,0.6-0.1,0.7-0.3c0.2-0.2,0.2-0.5,0.2-0.8v-19.3c0-0.4-0.1-0.6-0.3-0.9
		c-0.2-0.2-0.5-0.3-0.8-0.3c-0.4,0-0.9,0.2-1.4,0.6l-4.9,3.2c-0.3,0.2-0.4,0.5-0.4,0.8c0,0.2,0.1,0.4,0.2,0.6
		c0.2,0.2,0.4,0.2,0.6,0.2c0.1,0,0.2,0,0.3-0.1c0.1,0,0.2-0.1,0.3-0.2l4.3-2.7h0.1v18c0,0.4,0.1,0.6,0.3,0.8
		C-787.9-661.9-787.6-661.8-787.3-661.8z"/>
</g>
</svg>
