<?xml version="1.0" encoding="utf-8"?>
<!-- Generator: Adobe Illustrator 26.0.1, SVG Export Plug-In . SVG Version: 6.00 Build 0)  -->
<svg version="1.1" id="Ebene_1" xmlns="http://www.w3.org/2000/svg" xmlns:xlink="http://www.w3.org/1999/xlink" x="0px" y="0px"
	 viewBox="0 0 47.9 47.9" style="enable-background:new 0 0 47.9 47.9;" xml:space="preserve">
<style type="text/css">
	.st0{fill:#4E4D4D;}
	.st1{fill:#202121;}
</style>
<g id="Thin-S_00000150798560068152517040000009838756763689593224_" transform="matrix(1 0 0 1 811.863 696)">
	<path class="st0" d="M-787.9-648.1c3.3,0,6.4-0.6,9.3-1.9c2.9-1.2,5.4-3,7.6-5.2c2.2-2.2,3.9-4.8,5.2-7.6c1.2-2.9,1.9-6,1.9-9.3
		s-0.6-6.4-1.9-9.3c-1.2-2.9-3-5.4-5.2-7.6c-2.2-2.2-4.8-3.9-7.6-5.2s-6-1.9-9.3-1.9c-3.3,0-6.4,0.6-9.3,1.9c-2.9,1.2-5.4,3-7.6,5.2
		c-2.2,2.2-3.9,4.8-5.2,7.6c-1.3,2.9-1.9,6-1.9,9.3s0.6,6.4,1.9,9.3c1.3,2.9,3,5.4,5.2,7.6c2.2,2.2,4.7,3.9,7.6,5.2
		C-794.3-648.7-791.2-648.1-787.9-648.1z M-787.9-650.2c-3,0-5.8-0.6-8.5-1.7c-2.6-1.1-5-2.7-7-4.7c-2-2-3.6-4.3-4.7-7
		s-1.7-5.5-1.7-8.5s0.6-5.8,1.7-8.5s2.7-5,4.7-7s4.3-3.6,7-4.7c2.6-1.1,5.5-1.7,8.5-1.7c3,0,5.8,0.6,8.5,1.7c2.6,1.1,5,2.7,7,4.7
		c2,2,3.6,4.3,4.7,7s1.7,5.5,1.7,8.5s-0.6,5.8-1.7,8.5s-2.7,5-4.7,7c-2,2-4.3,3.6-7,4.7C-782.1-650.8-784.9-650.2-787.9-650.2z"/>
	<path class="st1" d="M-793.3-661.2h12.3c0.3,0,0.5-0.1,0.7-0.3c0.2-0.2,0.3-0.4,0.3-0.7c0-0.3-0.1-0.5-0.3-0.7
		c-0.2-0.2-0.4-0.2-0.7-0.2h-10.4v-0.1l6.9-7.5c1.2-1.3,2.1-2.5,2.7-3.5c0.6-1,0.9-2.1,0.9-3.2c0-1.7-0.6-3.1-1.8-4.2
		c-1.2-1.1-2.8-1.6-4.9-1.6c-1.7,0-3.2,0.5-4.5,1.4c-1.3,0.9-2.1,2.1-2.3,3.5c0,0.1-0.1,0.2-0.1,0.4c0,0.1,0,0.2,0,0.4
		c0,0.3,0.1,0.5,0.3,0.7c0.2,0.2,0.4,0.3,0.7,0.3c0.3,0,0.5-0.1,0.7-0.2c0.2-0.1,0.3-0.4,0.3-0.6c0.2-1.1,0.7-2,1.6-2.8
		c0.9-0.8,2-1.1,3.4-1.1c1.4,0,2.5,0.4,3.4,1.1c0.8,0.7,1.3,1.7,1.3,3c0,0.9-0.2,1.7-0.7,2.5c-0.5,0.8-1.1,1.7-2,2.6l-8.2,9.1
		c-0.1,0.1-0.2,0.3-0.3,0.4s-0.1,0.3-0.1,0.4c0,0.3,0.1,0.6,0.3,0.7C-793.9-661.3-793.6-661.2-793.3-661.2z"/>
</g>
</svg>
